{
	"asset":{
		"generator":"Khronos glTF Blender I/O v5.0.21",
		"version":"2.0"
	},
	"scene":0,
	"scenes":[
		{
			"name":"Scene",
			"nodes":[
				81
			]
		}
	],
	"nodes":[
		{
			"name":"EarL3_end",
			"rotation":[
				2.7939677238464355e-08,
				-2.2351741790771484e-08,
				-1.1175870895385742e-08,
				1
			],
			"translation":[
				-9.5367431640625e-07,
				1.0000019073486328,
				-4.291534423828125e-06
			]
		},
		{
			"children":[
				0
			],
			"name":"EarL3",
			"rotation":[
				2.3655593395233154e-07,
				-5.587935447692871e-07,
				-5.234032869338989e-07,
				1
			],
			"translation":[
				5.3882598876953125e-05,
				5.459992408752441,
				9.5367431640625e-06
			]
		},
		{
			"children":[
				1
			],
			"name":"EarL2",
			"rotation":[
				0.0436183363199234,
				4.1763004787753744e-07,
				1.1279739453584625e-07,
				0.9990482330322266
			],
			"scale":[
				1,
				1,
				0.9999999403953552
			],
			"translation":[
				-2.5272369384765625e-05,
				3.119997501373291,
				-9.059906005859375e-06
			]
		},
		{
			"children":[
				2
			],
			"name":"EarL1",
			"rotation":[
				-0.44370487332344055,
				0.0938977301120758,
				-0.5162056088447571,
				0.72652667760849
			],
			"scale":[
				0.9999998211860657,
				1,
				0.9999999403953552
			],
			"translation":[
				7.045579433441162,
				9.744568824768066,
				-10.860790252685547
			]
		},
		{
			"name":"EarR3_end",
			"rotation":[
				1.1175870895385742e-08,
				-3.725290298461914e-09,
				-1.862645149230957e-08,
				1
			],
			"translation":[
				1.430511474609375e-06,
				1.0000042915344238,
				3.814697265625e-06
			]
		},
		{
			"children":[
				4
			],
			"name":"EarR3",
			"rotation":[
				5.867331864806147e-08,
				-1.1883676052093506e-06,
				-3.743916181520035e-07,
				1
			],
			"scale":[
				1.0000001192092896,
				1.0000001192092896,
				1
			],
			"translation":[
				-1.3828277587890625e-05,
				5.4599995613098145,
				-2.384185791015625e-06
			]
		},
		{
			"children":[
				5
			],
			"name":"EarR2",
			"rotation":[
				0.0436178594827652,
				3.6468052257987438e-06,
				1.5143751852519927e-06,
				0.9990482330322266
			],
			"scale":[
				0.9999999403953552,
				0.9999998807907104,
				1
			],
			"translation":[
				-5.7220458984375e-06,
				3.119969367980957,
				-2.86102294921875e-06
			]
		},
		{
			"children":[
				6
			],
			"name":"EarR1",
			"rotation":[
				-0.44370129704475403,
				-0.09390074014663696,
				0.5162073373794556,
				0.7265272736549377
			],
			"scale":[
				1,
				1,
				1.0000001192092896
			],
			"translation":[
				-7.045602321624756,
				9.744553565979004,
				-10.860799789428711
			]
		},
		{
			"name":"EyeR_end",
			"rotation":[
				-1.0582152754068375e-07,
				-4.400499165058136e-08,
				-5.122274160385132e-09,
				1
			],
			"scale":[
				1,
				1,
				0.9999999403953552
			],
			"translation":[
				1.043081283569336e-06,
				0.9999946355819702,
				1.430511474609375e-06
			]
		},
		{
			"children":[
				8
			],
			"name":"EyeR",
			"rotation":[
				0.20507684350013733,
				-0.6865304112434387,
				-0.033606451004743576,
				0.6967712640762329
			],
			"translation":[
				-5.651750564575195,
				19.931133270263672,
				-1.3962606191635132
			]
		},
		{
			"name":"EyelidRU_end",
			"rotation":[
				1.73225998878479e-07,
				-1.2852251529693604e-07,
				-4.842877743271856e-08,
				1
			],
			"scale":[
				1,
				0.9999999403953552,
				1.0000001192092896
			],
			"translation":[
				3.0994415283203125e-06,
				1.000009298324585,
				1.430511474609375e-06
			]
		},
		{
			"children":[
				10
			],
			"name":"EyelidRU",
			"rotation":[
				0.12381856888532639,
				-0.8051066398620605,
				0.20178745687007904,
				0.5438327789306641
			],
			"scale":[
				0.9999998807907104,
				1.0000001192092896,
				1
			],
			"translation":[
				-5.373860836029053,
				19.566865921020508,
				-1.518161416053772
			]
		},
		{
			"name":"EyelidRD_end",
			"rotation":[
				3.725290298461914e-08,
				3.725290298461914e-08,
				-7.450580596923828e-09,
				1
			],
			"scale":[
				1,
				1,
				0.9999999403953552
			],
			"translation":[
				-1.4662742614746094e-05,
				0.999995231628418,
				5.7220458984375e-06
			]
		},
		{
			"children":[
				12
			],
			"name":"EyelidRD",
			"rotation":[
				0.5632169842720032,
				-0.588485598564148,
				-0.14663486182689667,
				0.5612214803695679
			],
			"scale":[
				1,
				1,
				1.0000001192092896
			],
			"translation":[
				-5.3738508224487305,
				19.566865921020508,
				-1.518161416053772
			]
		},
		{
			"name":"EyeL_end",
			"rotation":[
				9.860378469284115e-08,
				-1.909211277961731e-08,
				8.614733815193176e-09,
				1
			],
			"scale":[
				1,
				1,
				0.9999999403953552
			],
			"translation":[
				-3.0994415283203125e-06,
				0.9999964237213135,
				-3.5762786865234375e-07
			]
		},
		{
			"children":[
				14
			],
			"name":"EyeL",
			"rotation":[
				0.20507709681987762,
				0.686529278755188,
				0.03360564261674881,
				0.6967722773551941
			],
			"scale":[
				1,
				0.9999998807907104,
				0.9999999403953552
			],
			"translation":[
				5.651877403259277,
				19.931127548217773,
				-1.396264672279358
			]
		},
		{
			"name":"EyelidLU_end",
			"rotation":[
				-1.2665987014770508e-07,
				-1.7695128917694092e-08,
				-9.313224857976365e-09,
				1
			],
			"scale":[
				1,
				1.0000001192092896,
				1
			],
			"translation":[
				1.6689300537109375e-06,
				0.9999997615814209,
				-4.291534423828125e-06
			]
		},
		{
			"children":[
				16
			],
			"name":"EyelidLU",
			"rotation":[
				0.12381874024868011,
				0.8051081299781799,
				-0.20178742706775665,
				0.5438306331634521
			],
			"scale":[
				1.0000001192092896,
				1.0000001192092896,
				0.9999999403953552
			],
			"translation":[
				5.3738603591918945,
				19.566884994506836,
				-1.5181711912155151
			]
		},
		{
			"name":"Nose_end",
			"rotation":[
				8.881784197001252e-16,
				5.684341886080802e-14,
				4.7961631275674974e-14,
				1
			],
			"scale":[
				1,
				1.0000001192092896,
				1
			],
			"translation":[
				-3.2741809263825417e-11,
				1.0000038146972656,
				-1.687396888883086e-10
			]
		},
		{
			"children":[
				18
			],
			"name":"Nose",
			"rotation":[
				0.31584277749061584,
				1.7561035292601446e-06,
				7.740882779216918e-08,
				0.9488115906715393
			],
			"scale":[
				1,
				0.9999999403953552,
				0.9999999403953552
			],
			"translation":[
				1.0625073628034443e-05,
				29.45867156982422,
				10.384492874145508
			]
		},
		{
			"name":"Tongue4_end",
			"rotation":[
				1.862645326866641e-08,
				-9.23705624250766e-14,
				1.4210854715202004e-14,
				1
			],
			"scale":[
				1,
				1,
				0.9999999403953552
			],
			"translation":[
				3.979039320256561e-12,
				1.0000019073486328,
				5.7220518101530615e-06
			]
		},
		{
			"children":[
				20
			],
			"name":"Tongue4",
			"rotation":[
				-0.11934688687324524,
				1.7506023368696333e-06,
				-4.8101334471084556e-08,
				0.9928526282310486
			],
			"scale":[
				1,
				1.0000001192092896,
				1
			],
			"translation":[
				4.686087322625099e-06,
				2.8018798828125,
				1.52587890625e-05
			]
		},
		{
			"children":[
				21
			],
			"name":"Tongue3",
			"rotation":[
				-0.17792652547359467,
				1.0936072385447915e-06,
				2.0214690721331863e-07,
				0.9840437769889832
			],
			"scale":[
				1,
				1,
				0.9999999403953552
			],
			"translation":[
				4.7002532710394007e-07,
				3.9038829803466797,
				-1.5258788153005298e-05
			]
		},
		{
			"children":[
				22
			],
			"name":"Tongue2",
			"rotation":[
				0.1433994174003601,
				3.969928741298645e-07,
				-5.515263978850271e-07,
				0.9896649122238159
			],
			"scale":[
				1,
				0.9999999403953552,
				0.9999999403953552
			],
			"translation":[
				3.0991618586995173e-06,
				5.031005859375,
				-3.814700448856456e-06
			]
		},
		{
			"children":[
				23
			],
			"name":"Tongue1",
			"rotation":[
				-0.04178484529256821,
				-2.0156292066531023e-06,
				2.885766434701509e-07,
				0.999126672744751
			],
			"scale":[
				1,
				0.9999999403953552,
				0.9999999403953552
			],
			"translation":[
				5.446701106848195e-05,
				6.946258544921875,
				-1.4432334899902344
			]
		},
		{
			"children":[
				24
			],
			"name":"Jaw",
			"rotation":[
				0.2951776683330536,
				8.60555189774459e-07,
				-2.173980639952333e-08,
				0.9554423689842224
			],
			"scale":[
				1,
				0.9999998807907104,
				1
			],
			"translation":[
				7.842550985515118e-06,
				5.578393459320068,
				5.990139484405518
			]
		},
		{
			"name":"EyelidLD_end",
			"rotation":[
				-1.862645149230957e-08,
				-7.450582373280668e-09,
				7.450580596923828e-08,
				1
			],
			"scale":[
				1,
				1,
				0.9999999403953552
			],
			"translation":[
				1.0728836059570312e-06,
				0.999990701675415,
				7.62939453125e-06
			]
		},
		{
			"children":[
				26
			],
			"name":"EyelidLD",
			"rotation":[
				0.5632173418998718,
				0.5884864330291748,
				0.14663425087928772,
				0.5612205266952515
			],
			"scale":[
				0.9999999403953552,
				1.0000001192092896,
				0.9999999403953552
			],
			"translation":[
				5.373849868774414,
				19.566884994506836,
				-1.5181711912155151
			]
		},
		{
			"name":"MouthR_end",
			"rotation":[
				4.820003596250899e-07,
				-3.3895985325216316e-06,
				-1.7974525690078735e-07,
				1
			],
			"scale":[
				1.0000001192092896,
				0.9999999403953552,
				1
			],
			"translation":[
				6.943941116333008e-06,
				1.0000007152557373,
				-2.0448405848583207e-06
			]
		},
		{
			"children":[
				28
			],
			"name":"MouthR",
			"rotation":[
				0.23456887900829315,
				-0.2149394005537033,
				0.6404861807823181,
				0.6989678144454956
			],
			"scale":[
				0.9999999403953552,
				1,
				0.9999999403953552
			],
			"translation":[
				-3.8563666343688965,
				23.723926544189453,
				11.727802276611328
			]
		},
		{
			"name":"MouthL_end",
			"rotation":[
				-3.312181888759369e-07,
				4.435872469343849e-08,
				-2.1373853087425232e-07,
				1
			],
			"translation":[
				-1.2099742889404297e-05,
				1.0000011920928955,
				-5.855530616827309e-06
			]
		},
		{
			"children":[
				30
			],
			"name":"MouthL",
			"rotation":[
				0.23460189998149872,
				0.21497511863708496,
				-0.6404746174812317,
				0.698956310749054
			],
			"translation":[
				3.856393337249756,
				23.72393226623535,
				11.72767162322998
			]
		},
		{
			"children":[
				3,
				7,
				9,
				11,
				13,
				15,
				17,
				19,
				25,
				27,
				29,
				31
			],
			"name":"Head",
			"rotation":[
				0.11252699792385101,
				-9.816549209062941e-07,
				-6.50246301248103e-09,
				0.9936487078666687
			],
			"translation":[
				3.110117177129723e-07,
				6.721435546875,
				-0.6383323669433594
			]
		},
		{
			"children":[
				32
			],
			"name":"Neck3",
			"rotation":[
				8.19563723553074e-08,
				-8.940700979565008e-08,
				-2.611244553918368e-13,
				1
			],
			"scale":[
				1,
				1,
				0.9999999403953552
			],
			"translation":[
				7.59147951612249e-07,
				6.74131965637207,
				9.536698598822113e-06
			]
		},
		{
			"children":[
				33
			],
			"name":"Neck2",
			"rotation":[
				-1.6391273049976007e-07,
				2.8312211952652433e-07,
				2.028599510595086e-12,
				1
			],
			"scale":[
				1,
				0.9999998807907104,
				0.9999999403953552
			],
			"translation":[
				-4.2840110836550593e-07,
				6.741312026977539,
				-1.9035439891013084e-11
			]
		},
		{
			"children":[
				34
			],
			"name":"Neck1",
			"rotation":[
				-0.14161327481269836,
				6.540668096022273e-08,
				5.934388127570855e-07,
				0.989922046661377
			],
			"scale":[
				1,
				1.0000001192092896,
				1
			],
			"translation":[
				-3.43207320838701e-05,
				22.893310546875,
				2.288815267093014e-05
			]
		},
		{
			"name":"NeckFix1_end",
			"rotation":[
				0,
				-2.169375790117556e-13,
				-1.2256862191861728e-13,
				1
			],
			"translation":[
				-4.547473508864641e-12,
				1.0000028610229492,
				-1.9072659824814764e-06
			]
		},
		{
			"children":[
				36
			],
			"name":"NeckFix1",
			"rotation":[
				-0.6376899480819702,
				-1.0993812793458346e-06,
				1.0758247981357272e-06,
				0.7702931761741638
			],
			"translation":[
				-2.8585804102476686e-05,
				21.7506160736084,
				-15.603073120117188
			]
		},
		{
			"name":"NeckFix2_end",
			"rotation":[
				1.7136332530753862e-07,
				4.263256143510058e-13,
				1.2434497875801753e-12,
				1
			],
			"scale":[
				1,
				1.0000001192092896,
				1.0000001192092896
			],
			"translation":[
				-1.0913936421275139e-11,
				1.000004768371582,
				3.814549017988611e-06
			]
		},
		{
			"children":[
				38
			],
			"name":"NeckFix2",
			"rotation":[
				0.4230719804763794,
				1.5404345958813792e-06,
				1.3386709269980201e-06,
				0.9060961008071899
			],
			"translation":[
				-4.96948414365761e-05,
				31.130496978759766,
				14.803035736083984
			]
		},
		{
			"name":"ChestL_end",
			"rotation":[
				-2.2351773765194594e-08,
				-9.23705624250766e-14,
				7.344172558987339e-08,
				1
			],
			"scale":[
				1,
				0.9999998807907104,
				0.9999999403953552
			],
			"translation":[
				-6.287973519647494e-07,
				1.0000029802322388,
				2.4946496068878332e-06
			]
		},
		{
			"children":[
				40
			],
			"name":"ChestL",
			"rotation":[
				0.42261824011802673,
				4.2481954665163357e-07,
				5.926952439949673e-07,
				0.9063078165054321
			],
			"scale":[
				1,
				1,
				1.0000001192092896
			],
			"translation":[
				3.266218423843384,
				20.395898818969727,
				22.51483154296875
			]
		},
		{
			"name":"ChestR_end",
			"rotation":[
				-2.2351773765194594e-08,
				-9.23705624250766e-14,
				7.344172558987339e-08,
				1
			],
			"scale":[
				1,
				0.9999998807907104,
				0.9999999403953552
			],
			"translation":[
				-3.903860488208011e-07,
				0.9999994039535522,
				5.134694220032543e-06
			]
		},
		{
			"children":[
				42
			],
			"name":"ChestR",
			"rotation":[
				0.42261824011802673,
				4.2481954665163357e-07,
				5.926952439949673e-07,
				0.9063078165054321
			],
			"scale":[
				1,
				1,
				1.0000001192092896
			],
			"translation":[
				-3.2662830352783203,
				20.395889282226562,
				22.51483154296875
			]
		},
		{
			"name":"LegFRDigit11_end",
			"rotation":[
				-4.656359464672022e-10,
				2.385491804091089e-11,
				-1.6590132045912753e-10,
				1
			],
			"translation":[
				1.965037426998606e-06,
				0.9999964237213135,
				2.0731181393784937e-07
			]
		},
		{
			"children":[
				44
			],
			"name":"LegFRDigit11",
			"rotation":[
				0.22807982563972473,
				7.108130375854671e-05,
				0.0003041352902073413,
				0.9736424088478088
			],
			"scale":[
				0.9999998807907104,
				0.9999999403953552,
				0.9999997615814209
			],
			"translation":[
				-0.00361380772665143,
				4.479684352874756,
				-1.0680267810821533
			]
		},
		{
			"children":[
				45
			],
			"name":"LegFRAnkle",
			"rotation":[
				0.37337344884872437,
				-0.0057947272434830666,
				-0.014058012515306473,
				0.9275565147399902
			],
			"scale":[
				1,
				0.9999999403953552,
				1
			],
			"translation":[
				-6.303191184997559e-06,
				12.62507152557373,
				1.77677720785141e-05
			]
		},
		{
			"children":[
				46
			],
			"name":"LegFR3",
			"rotation":[
				0.15304039418697357,
				0.016641156747937202,
				-0.0035091075114905834,
				0.9880735874176025
			],
			"scale":[
				1,
				1.0000001192092896,
				1.0000001192092896
			],
			"translation":[
				4.00543212890625e-05,
				32.63656234741211,
				0.00020262598991394043
			]
		},
		{
			"children":[
				47
			],
			"name":"LegFR2",
			"rotation":[
				0.32447242736816406,
				0.020881157368421555,
				0.01401275023818016,
				0.9455608129501343
			],
			"scale":[
				0.9999998807907104,
				1,
				0.9999999403953552
			],
			"translation":[
				-2.5093555450439453e-05,
				19.4645938873291,
				-9.173154830932617e-05
			]
		},
		{
			"children":[
				48
			],
			"name":"LegFR1",
			"rotation":[
				-0.47135868668556213,
				-0.0522712841629982,
				0.13923737406730652,
				0.8693110346794128
			],
			"scale":[
				1,
				1,
				0.9999999403953552
			],
			"translation":[
				2.086162567138672e-05,
				26.61480140686035,
				5.53131103515625e-05
			]
		},
		{
			"children":[
				49
			],
			"name":"LegFRCollarbone",
			"rotation":[
				-0.06840737909078598,
				0.8200380802154541,
				0.5554326176643372,
				0.11980237811803818
			],
			"scale":[
				1,
				1.0000003576278687,
				1.0000001192092896
			],
			"translation":[
				-4.487903594970703,
				10.212698936462402,
				-11.481972694396973
			]
		},
		{
			"name":"LegFLDigit11_end",
			"rotation":[
				-4.563480615615845e-08,
				-5.950296678991496e-14,
				-5.796391838730486e-11,
				1
			],
			"translation":[
				1.4151324876365834e-06,
				0.999997079372406,
				-9.537643563817255e-08
			]
		},
		{
			"children":[
				51
			],
			"name":"LegFLDigit11",
			"rotation":[
				0.2283068746328354,
				-8.837546920403838e-05,
				-0.00037555902963504195,
				0.9735891819000244
			],
			"scale":[
				1,
				1.0000001192092896,
				1.0000001192092896
			],
			"translation":[
				0.0036173956468701363,
				4.4796462059021,
				-1.068019986152649
			]
		},
		{
			"children":[
				52
			],
			"name":"LegFLAnkle",
			"rotation":[
				0.3732375502586365,
				0.005768250674009323,
				0.014150639995932579,
				0.9276099801063538
			],
			"translation":[
				9.924173355102539e-06,
				12.62494945526123,
				-3.325054422020912e-05
			]
		},
		{
			"children":[
				53
			],
			"name":"LegFL3",
			"rotation":[
				0.1529928296804428,
				-0.016634613275527954,
				0.0034911881666630507,
				0.9880810976028442
			],
			"scale":[
				0.9999998807907104,
				1,
				0.9999998807907104
			],
			"translation":[
				-6.216764450073242e-05,
				32.63642120361328,
				0.00018039345741271973
			]
		},
		{
			"children":[
				54
			],
			"name":"LegFL2",
			"rotation":[
				0.32448145747184753,
				-0.020876722410321236,
				-0.014030436985194683,
				0.9455575942993164
			],
			"scale":[
				0.9999998807907104,
				0.9999998211860657,
				1
			],
			"translation":[
				8.225440979003906e-06,
				19.46453285217285,
				-8.07046890258789e-05
			]
		},
		{
			"children":[
				55
			],
			"name":"LegFL1",
			"rotation":[
				-0.47140130400657654,
				0.052280355244874954,
				-0.1392243355512619,
				0.8692894577980042
			],
			"scale":[
				1.0000001192092896,
				1.0000001192092896,
				1.0000001192092896
			],
			"translation":[
				-5.364418029785156e-06,
				26.61479377746582,
				-7.152557373046875e-06
			]
		},
		{
			"children":[
				56
			],
			"name":"LegFLCollarbone",
			"rotation":[
				-0.06840689480304718,
				-0.8200391530990601,
				-0.5554311275482178,
				0.11980224400758743
			],
			"scale":[
				0.9999999403953552,
				1,
				1.0000001192092896
			],
			"translation":[
				4.48787784576416,
				10.212706565856934,
				-11.48197078704834
			]
		},
		{
			"children":[
				35,
				37,
				39,
				41,
				43,
				50,
				57
			],
			"name":"Chest",
			"rotation":[
				0.014878962188959122,
				1.8992622017321992e-06,
				-7.444522793775832e-07,
				0.9998893141746521
			],
			"scale":[
				1,
				0.9999998211860657,
				1
			],
			"translation":[
				-5.919773684581742e-07,
				23.93206214904785,
				-9.763232083059847e-05
			]
		},
		{
			"children":[
				58
			],
			"name":"Spine2",
			"rotation":[
				0.0012632171856239438,
				-7.904031349426077e-07,
				5.538590741593907e-08,
				0.9999992251396179
			],
			"scale":[
				1,
				1,
				0.9999998807907104
			],
			"translation":[
				-3.4618183235579636e-06,
				24.33736801147461,
				-5.2660681831184775e-05
			]
		},
		{
			"children":[
				59
			],
			"name":"Spine1",
			"rotation":[
				0.6956003904342651,
				-8.502789228259644e-07,
				-4.3638112856569933e-07,
				0.7184289693832397
			],
			"scale":[
				1,
				0.9999999403953552,
				0.9999999403953552
			],
			"translation":[
				-8.251656254287809e-06,
				0.5442056655883789,
				9.68675708770752
			]
		},
		{
			"name":"Tail4_end",
			"rotation":[
				-1.862645149230957e-08,
				0,
				-1.687538997430238e-13,
				1
			],
			"translation":[
				0,
				1.0000057220458984,
				7.629339052073192e-06
			]
		},
		{
			"children":[
				61
			],
			"name":"Tail4",
			"rotation":[
				0.009411966428160667,
				1.5303743339245557e-06,
				3.8460933637907146e-07,
				0.9999557137489319
			],
			"scale":[
				1,
				0.9999997615814209,
				0.9999997615814209
			],
			"translation":[
				-5.328411498339847e-05,
				22.195514678955078,
				-0.8038768768310547
			]
		},
		{
			"children":[
				62
			],
			"name":"Tail3",
			"rotation":[
				0.0011796958278864622,
				9.692960247775773e-07,
				-7.365142806747826e-08,
				0.9999992847442627
			],
			"scale":[
				1,
				1.000000238418579,
				1
			],
			"translation":[
				-4.385114152682945e-06,
				21.964784622192383,
				-1.5258805433404632e-05
			]
		},
		{
			"children":[
				63
			],
			"name":"Tail2",
			"rotation":[
				-0.004300090484321117,
				9.51578300600886e-08,
				-1.388348351838431e-07,
				0.9999907612800598
			],
			"translation":[
				1.8763397520160652e-06,
				21.964805603027344,
				-3.3378619264112785e-05
			]
		},
		{
			"children":[
				64
			],
			"name":"Tail1",
			"rotation":[
				-0.7968438267707825,
				-4.118788581308763e-07,
				2.4940854359556397e-07,
				0.6041853427886963
			],
			"scale":[
				1,
				0.9999998807907104,
				0.9999998211860657
			],
			"translation":[
				2.8162494345451705e-06,
				9.786703109741211,
				-9.892687797546387
			]
		},
		{
			"name":"LegBLDigit11_end",
			"rotation":[
				-1.5365998251581914e-08,
				8.475038981714533e-08,
				4.65667948645887e-10,
				1
			],
			"scale":[
				1,
				1.0000001192092896,
				1.0000001192092896
			],
			"translation":[
				2.1300575099303387e-06,
				1.0000029802322388,
				3.4451932151569054e-07
			]
		},
		{
			"children":[
				66
			],
			"name":"LegBLDigit11",
			"rotation":[
				0.19573213160037994,
				-0.010144929401576519,
				-0.019987940788269043,
				0.9804012179374695
			],
			"scale":[
				1,
				0.9999999403953552,
				1
			],
			"translation":[
				-0.27909308671951294,
				4.344510078430176,
				-0.8819221258163452
			]
		},
		{
			"children":[
				67
			],
			"name":"LegBLAnkle",
			"rotation":[
				0.4984283149242401,
				0.01848570816218853,
				0.04416064918041229,
				0.8656080961227417
			],
			"scale":[
				1,
				0.9999998807907104,
				1
			],
			"translation":[
				-2.6226043701171875e-06,
				21.48582649230957,
				-5.260109901428223e-06
			]
		},
		{
			"children":[
				68
			],
			"name":"LegBL3",
			"rotation":[
				0.4295271039009094,
				0.004499781411141157,
				-0.03342908248305321,
				0.9024237990379333
			],
			"scale":[
				1.0000001192092896,
				1.0000001192092896,
				1
			],
			"translation":[
				0.00018879398703575134,
				30.998760223388672,
				0.0011055280920118093
			]
		},
		{
			"children":[
				69
			],
			"name":"LegBL2",
			"rotation":[
				-0.3876979947090149,
				0.02020062878727913,
				-0.04927745461463928,
				0.9202466607093811
			],
			"scale":[
				0.9999998807907104,
				1,
				1.0000001192092896
			],
			"translation":[
				-1.9764527678489685e-05,
				31.861433029174805,
				-2.259388566017151e-05
			]
		},
		{
			"children":[
				70
			],
			"name":"LegBL1",
			"rotation":[
				0.0002790728467516601,
				-0.01567598432302475,
				-0.9984175562858582,
				0.05400477349758148
			],
			"scale":[
				1.0000079870224,
				0.9999999403953552,
				1.0000007152557373
			],
			"translation":[
				7.890385627746582,
				5.775172710418701,
				-1.294618844985962
			]
		},
		{
			"name":"LegBRDigit11_end",
			"rotation":[
				5.378377920806088e-08,
				1.1175872316471214e-07,
				5.355064391920905e-09,
				1
			],
			"scale":[
				1,
				0.9999998807907104,
				1
			],
			"translation":[
				4.3312635966685775e-07,
				1.0000009536743164,
				8.288679964607581e-09
			]
		},
		{
			"children":[
				72
			],
			"name":"LegBRDigit11",
			"rotation":[
				0.19569845497608185,
				0.010167187079787254,
				0.020095081999897957,
				0.9804055094718933
			],
			"scale":[
				1.0000001192092896,
				1.0000001192092896,
				1
			],
			"translation":[
				0.2790933847427368,
				4.344500541687012,
				-0.8819176554679871
			]
		},
		{
			"children":[
				73
			],
			"name":"LegBRAnkle",
			"rotation":[
				0.4983631372451782,
				-0.0184579286724329,
				-0.04429524391889572,
				0.865639328956604
			],
			"scale":[
				0.9999998211860657,
				0.9999999403953552,
				0.9999998807907104
			],
			"translation":[
				2.473592758178711e-06,
				21.48583221435547,
				-2.092123031616211e-05
			]
		},
		{
			"children":[
				74
			],
			"name":"LegBR3",
			"rotation":[
				0.4295811057090759,
				-0.0045205880887806416,
				0.033468496054410934,
				0.9023965001106262
			],
			"scale":[
				0.9999999403953552,
				1.0000001192092896,
				1
			],
			"translation":[
				-0.00017431378364562988,
				30.998733520507812,
				0.0011785065289586782
			]
		},
		{
			"children":[
				75
			],
			"name":"LegBR2",
			"rotation":[
				-0.3876492977142334,
				-0.02019459381699562,
				0.049283891916275024,
				0.9202669858932495
			],
			"scale":[
				0.9999998807907104,
				1,
				1
			],
			"translation":[
				-7.059425115585327e-06,
				31.8614444732666,
				3.0232593417167664e-05
			]
		},
		{
			"children":[
				76
			],
			"name":"LegBR1",
			"rotation":[
				0.00028347884654067457,
				0.015672869980335236,
				0.9984175562858582,
				0.05400679260492325
			],
			"scale":[
				0.9999894499778748,
				0.9999999403953552,
				0.9999989867210388
			],
			"translation":[
				-7.890384674072266,
				5.775170803070068,
				-1.294626235961914
			]
		},
		{
			"children":[
				60,
				65,
				71,
				77
			],
			"name":"Pelvis",
			"rotation":[
				-0.7071067690849304,
				-0.7071067690849304,
				-5.338507236274381e-08,
				5.338507236274381e-08
			],
			"translation":[
				75.67328643798828,
				9.094947017729282e-13,
				21.782625198364258
			]
		},
		{
			"children":[
				78
			],
			"name":"Root",
			"rotation":[
				-0.5000001192092896,
				-0.49999988079071045,
				0.49999988079071045,
				0.5000001788139343
			]
		},
		{
			"mesh":0,
			"name":"Wolf.001",
			"skin":0
		},
		{
			"children":[
				80,
				79
			],
			"name":"Wolf",
			"scale":[
				0.009999999776482582,
				0.009999999776482582,
				0.009999999776482582
			]
		}
	],
	"materials":[
		{
			"alphaMode":"BLEND",
			"doubleSided":true,
			"name":"Wolf",
			"pbrMetallicRoughness":{
				"baseColorTexture":{
					"index":0
				},
				"metallicFactor":0
			}
		}
	],
	"meshes":[
		{
			"name":"Wolf",
			"primitives":[
				{
					"attributes":{
						"POSITION":0,
						"NORMAL":1,
						"TEXCOORD_0":2,
						"COLOR_0":3,
						"COLOR_1":4,
						"JOINTS_0":5,
						"WEIGHTS_0":6
					},
					"indices":7,
					"material":0
				}
			]
		}
	],
	"textures":[
		{
			"sampler":0,
			"source":0
		}
	],
	"images":[
		{
			"mimeType":"image/png",
			"name":"Wolf",
			"uri":"Wolf.png"
		}
	],
	"skins":[
		{
			"inverseBindMatrices":8,
			"joints":[
				79,
				78,
				60,
				59,
				58,
				35,
				34,
				33,
				32,
				3,
				2,
				1,
				0,
				7,
				6,
				5,
				4,
				9,
				8,
				11,
				10,
				13,
				12,
				15,
				14,
				17,
				16,
				19,
				18,
				25,
				24,
				23,
				22,
				21,
				20,
				27,
				26,
				29,
				28,
				31,
				30,
				37,
				36,
				39,
				38,
				41,
				40,
				43,
				42,
				50,
				49,
				48,
				47,
				46,
				45,
				44,
				57,
				56,
				55,
				54,
				53,
				52,
				51,
				65,
				64,
				63,
				62,
				61,
				71,
				70,
				69,
				68,
				67,
				66,
				77,
				76,
				75,
				74,
				73,
				72
			],
			"name":"Wolf"
		}
	],
	"accessors":[
		{
			"bufferView":0,
			"componentType":5126,
			"count":9563,
			"max":[
				1.113986849784851,
				1.0659449100494385,
				0.18150091171264648
			],
			"min":[
				-0.9260249733924866,
				-0.003916960209608078,
				-0.1815010905265808
			],
			"type":"VEC3"
		},
		{
			"bufferView":1,
			"componentType":5126,
			"count":9563,
			"type":"VEC3"
		},
		{
			"bufferView":2,
			"componentType":5126,
			"count":9563,
			"type":"VEC2"
		},
		{
			"bufferView":3,
			"componentType":5121,
			"count":9563,
			"normalized":true,
			"type":"VEC4"
		},
		{
			"bufferView":4,
			"componentType":5123,
			"count":9563,
			"normalized":true,
			"type":"VEC4"
		},
		{
			"bufferView":5,
			"componentType":5121,
			"count":9563,
			"type":"VEC4"
		},
		{
			"bufferView":6,
			"componentType":5126,
			"count":9563,
			"type":"VEC4"
		},
		{
			"bufferView":7,
			"componentType":5123,
			"count":48786,
			"type":"SCALAR"
		},
		{
			"bufferView":8,
			"componentType":5126,
			"count":80,
			"type":"MAT4"
		}
	],
	"bufferViews":[
		{
			"buffer":0,
			"byteLength":114756,
			"byteOffset":0,
			"target":34962
		},
		{
			"buffer":0,
			"byteLength":114756,
			"byteOffset":114756,
			"target":34962
		},
		{
			"buffer":0,
			"byteLength":76504,
			"byteOffset":229512,
			"target":34962
		},
		{
			"buffer":0,
			"byteLength":38252,
			"byteOffset":306016,
			"target":34962
		},
		{
			"buffer":0,
			"byteLength":76504,
			"byteOffset":344268,
			"target":34962
		},
		{
			"buffer":0,
			"byteLength":38252,
			"byteOffset":420772,
			"target":34962
		},
		{
			"buffer":0,
			"byteLength":153008,
			"byteOffset":459024,
			"target":34962
		},
		{
			"buffer":0,
			"byteLength":97572,
			"byteOffset":612032,
			"target":34963
		},
		{
			"buffer":0,
			"byteLength":5120,
			"byteOffset":709604
		}
	],
	"samplers":[
		{
			"magFilter":9729,
			"minFilter":9987
		}
	],
	"buffers":[
		{
			"byteLength":714724,
			"uri":"Wolf.bin"
		}
	]
}
